<?xml version="1.0" encoding="utf-8"?>
<!-- Generator: Adobe Illustrator 15.1.0, SVG Export Plug-In . SVG Version: 6.00 Build 0)  -->
<!DOCTYPE svg PUBLIC "-//W3C//DTD SVG 1.1//EN" "http://www.w3.org/Graphics/SVG/1.1/DTD/svg11.dtd">
<svg version="1.1" id="Layer_1" xmlns="http://www.w3.org/2000/svg" xmlns:xlink="http://www.w3.org/1999/xlink" x="0px" y="0px"
	 width="566.93px" height="566.93px" viewBox="0 0 566.93 566.93" enable-background="new 0 0 566.93 566.93" xml:space="preserve">
<g>
	<g>
		<path fill="#006D93" d="M170.193,307.613c-1.105,0-2.041-0.394-2.807-1.183c-0.789-0.767-1.182-1.701-1.182-2.806v-40.326
			c0-1.104,0.393-2.039,1.182-2.806c0.766-0.788,1.701-1.183,2.807-1.183c1.104,0,2.039,0.395,2.805,1.183
			c0.789,0.767,1.184,1.702,1.184,2.806v40.326c0,1.104-0.395,2.039-1.184,2.806C172.232,307.22,171.297,307.613,170.193,307.613z"
			/>
		<path fill="#006D93" d="M217.199,306.092h-0.033v-0.033l-24.303-31.267v28.833c0,1.104-0.395,2.039-1.184,2.806
			c-0.766,0.789-1.701,1.183-2.805,1.183s-2.039-0.394-2.805-1.183c-0.789-0.767-1.184-1.701-1.184-2.806V263.13
			c0-0.856,0.248-1.622,0.744-2.299c0.494-0.698,1.148-1.183,1.959-1.453c0.789-0.293,1.6-0.315,2.434-0.067
			c0.812,0.248,1.477,0.71,1.996,1.386l24.301,31.301V263.13c0-1.104,0.385-2.039,1.15-2.806c0.789-0.788,1.734-1.183,2.84-1.183
			c1.104,0,2.039,0.395,2.805,1.183c0.789,0.767,1.184,1.702,1.184,2.806v40.562c0,0.045-0.012,0.113-0.033,0.203
			c0,0.09,0,0.146,0,0.169c0,0.045-0.012,0.112-0.035,0.202c0,0.091-0.012,0.158-0.033,0.203l-0.033,0.169
			c-0.023,0.113-0.047,0.181-0.068,0.203c0,0.022-0.023,0.079-0.068,0.169c-0.021,0.09-0.045,0.157-0.066,0.202l-0.068,0.17
			l-0.102,0.169c-0.021,0.045-0.057,0.112-0.102,0.202l-0.102,0.102c-0.021,0.046-0.066,0.113-0.135,0.203l-0.102,0.135
			c-0.021,0.022-0.066,0.067-0.135,0.136c-0.068,0.09-0.113,0.135-0.135,0.135c0,0.022-0.045,0.067-0.135,0.136
			c-0.068,0.067-0.125,0.112-0.17,0.135c0.068-0.045,0.057-0.034-0.033,0.034l-0.035,0.033c-0.18,0.136-0.35,0.248-0.506,0.338
			h-0.033c-0.182,0.091-0.361,0.169-0.541,0.237c-0.092,0.045-0.113,0.057-0.068,0.033c-0.18,0.068-0.371,0.113-0.574,0.136
			l-0.102,0.033c-0.203,0.023-0.395,0.034-0.574,0.034c-0.137,0-0.283-0.011-0.439-0.034c0.045,0.023,0.021,0.023-0.068,0
			c-0.135-0.021-0.248-0.045-0.338-0.067c0.021,0.022-0.023,0.012-0.135-0.033c-0.113-0.022-0.203-0.045-0.271-0.068
			c-0.021,0-0.066-0.021-0.135-0.067c-0.113-0.022-0.203-0.056-0.27-0.102c-0.047,0-0.092-0.021-0.137-0.067
			c-0.09-0.045-0.168-0.079-0.236-0.102c-0.066-0.045-0.113-0.078-0.135-0.102c-0.068-0.045-0.146-0.101-0.236-0.169
			c-0.068-0.045-0.113-0.078-0.135-0.102c-0.113-0.089-0.215-0.18-0.305-0.27l-0.033-0.034v-0.034
			c-0.092-0.09-0.137-0.135-0.137-0.135S217.268,306.183,217.199,306.092z"/>
		<path fill="#006D93" d="M265.816,293.18c-0.18,4.034-1.791,7.448-4.832,10.242c-3.066,2.794-6.717,4.191-10.953,4.191
			c-3.674,0-6.963-0.788-9.869-2.366c-3.494-1.893-5.713-4.642-6.66-8.248c-0.27-1.059-0.135-2.062,0.406-3.008
			c0.562-0.946,1.375-1.555,2.434-1.825s2.062-0.136,3.008,0.405c0.947,0.563,1.555,1.375,1.826,2.434
			c0.406,1.511,1.51,2.693,3.312,3.55c1.623,0.743,3.471,1.115,5.543,1.115c2.119,0,3.932-0.664,5.443-1.994
			c1.531-1.307,2.342-2.93,2.434-4.868c0.045-1.171-0.373-2.219-1.252-3.144c-1.396-1.487-3.74-2.253-7.029-2.298h-0.035
			c-0.09,0-0.113,0-0.066,0c-0.023,0-0.047,0-0.068,0c-5.521-0.09-9.746-1.679-12.676-4.767c-2.412-2.568-3.537-5.555-3.381-8.957
			c0.182-4.057,1.793-7.481,4.834-10.276c3.043-2.794,6.693-4.191,10.953-4.191c3.672,0,6.963,0.789,9.869,2.366
			c3.492,1.893,5.713,4.643,6.66,8.248c0.27,1.06,0.123,2.062-0.439,3.008c-0.541,0.947-1.342,1.556-2.4,1.825
			c-1.061,0.271-2.062,0.136-3.01-0.405c-0.945-0.562-1.555-1.374-1.824-2.434c-0.406-1.51-1.521-2.692-3.346-3.549
			c-1.602-0.744-3.438-1.116-5.51-1.116c-2.119,0-3.945,0.665-5.477,1.995c-1.51,1.329-2.311,2.952-2.4,4.867
			c-0.045,1.172,0.373,2.23,1.25,3.177c1.398,1.466,3.742,2.221,7.031,2.266h0.17c5.52,0.09,9.746,1.689,12.676,4.8
			C264.848,286.77,265.975,289.755,265.816,293.18z"/>
		<path fill="#E9530E" d="M295.711,307.613c-6.693,0-12.404-2.377-17.137-7.132c-4.756-4.732-7.133-10.445-7.133-17.138
			c0-6.693,2.377-12.417,7.133-17.172c4.732-4.732,10.443-7.099,17.137-7.099s12.416,2.366,17.172,7.099
			c4.732,4.755,7.098,10.479,7.098,17.172c0,6.692-2.365,12.405-7.098,17.138C308.127,305.236,302.404,307.613,295.711,307.613z
			 M295.711,270.476c-3.543,0-6.568,1.256-9.076,3.766c-2.527,2.526-3.791,5.561-3.791,9.103s1.264,6.567,3.791,9.076
			c2.508,2.527,5.533,3.791,9.076,3.791c3.541,0,6.576-1.264,9.104-3.791c2.51-2.509,3.764-5.534,3.764-9.076
			s-1.254-6.576-3.764-9.103C302.287,271.731,299.252,270.476,295.711,270.476z"/>
		<path fill="#006D93" d="M357.104,259.142c1.104,0,2.051,0.395,2.84,1.183c0.766,0.789,1.148,1.735,1.148,2.84
			c0,1.104-0.395,2.039-1.184,2.805c-0.766,0.789-1.701,1.184-2.805,1.184h-0.033l-20.418-0.067v12.27h14.738
			c1.104,0,2.051,0.384,2.84,1.149c0.789,0.789,1.184,1.735,1.184,2.84s-0.395,2.051-1.184,2.839
			c-0.789,0.767-1.736,1.149-2.84,1.149h-14.738v16.293c0,1.104-0.395,2.039-1.182,2.806c-0.789,0.789-1.736,1.183-2.84,1.183
			s-2.039-0.394-2.805-1.183c-0.789-0.767-1.184-1.701-1.184-2.806v-40.529c0-1.126,0.395-2.072,1.184-2.839
			c0.766-0.789,1.701-1.184,2.805-1.184h0.033L357.104,259.142z"/>
		<path fill="#006D93" d="M378.855,267.051h-10.039c-1.105,0-2.051-0.394-2.84-1.183c-0.766-0.767-1.148-1.701-1.148-2.806
			s0.383-2.039,1.148-2.806c0.789-0.789,1.734-1.184,2.84-1.184h28.09c1.08,0,2.016,0.395,2.805,1.184
			c0.766,0.767,1.148,1.701,1.148,2.806s-0.383,2.039-1.148,2.806c-0.789,0.789-1.725,1.183-2.805,1.183h-10.074v36.574
			c0,1.104-0.395,2.051-1.182,2.839c-0.768,0.767-1.703,1.149-2.807,1.149s-2.039-0.383-2.805-1.149
			c-0.789-0.788-1.184-1.734-1.184-2.839V267.051z"/>
		<rect x="281.631" y="312.003" fill="#E9530E" width="29.666" height="11.009"/>
	</g>
	<rect x="117.666" y="210.771" fill="none" width="331.732" height="145.383"/>
</g>
</svg>
